<?xml version="1.0" encoding="UTF-8"?>
<svg width="231px" height="155px" viewBox="0 0 231 155" version="1.1" xmlns="http://www.w3.org/2000/svg" xmlns:xlink="http://www.w3.org/1999/xlink">
    <!-- Generator: sketchtool 61.2 (101010) - https://sketch.com -->
    <title>69B45915-A1F8-4295-870D-8ADECE399BCF</title>
    <desc>Created with sketchtool.</desc>
    <g id="Home" stroke="none" stroke-width="1" fill="none" fill-rule="evenodd" opacity="0.100000001">
        <g id="WSIRN-Home-without-Login" transform="translate(-91.000000, -3672.000000)" fill="#B07485" fill-rule="nonzero">
            <g id="Quotes-of-the-day" transform="translate(0.000000, 3672.000000)">
                <g id="alex-loup-2zDw14yCYqk-unsplash">
                    <g id="Bitmap">
                        <path d="M141.595238,155 C154.690476,155 166.198413,151.062802 176.119048,143.188406 C186.039683,135.31401 191,124.486715 191,110.706522 C191,94.1702899 185.543651,82.2602657 174.630952,74.9764493 C163.718254,67.6926329 150.52381,64.0507246 135.047619,64.0507246 C137.825397,50.2705314 144.472222,39.1479469 154.988095,30.682971 C165.503968,22.2179952 176.912698,15.6231884 189.214286,10.8985507 L189.214286,10.8985507 L189.214286,-8 C177.309524,-4.06280193 165.404762,0.957125604 153.5,7.05978261 C141.595238,13.1624396 131.079365,20.544686 121.952381,29.2065217 C112.825397,37.8683575 105.384921,47.7113527 99.6309524,58.7355072 C93.8769841,69.7596618 91,82.3586957 91,96.5326087 C91,112.281401 95.0674603,125.963164 103.202381,137.577899 C111.337302,149.192633 124.134921,155 141.595238,155 Z M272.595238,155 C285.690476,155 297.198413,151.062802 307.119048,143.188406 C317.039683,135.31401 322,124.486715 322,110.706522 C322,94.1702899 316.543651,82.2602657 305.630952,74.9764493 C294.718254,67.6926329 281.52381,64.0507246 266.047619,64.0507246 C268.825397,50.2705314 275.472222,39.1479469 285.988095,30.682971 C296.503968,22.2179952 307.912698,15.6231884 320.214286,10.8985507 L320.214286,10.8985507 L320.214286,-8 C308.309524,-4.06280193 296.404762,0.957125604 284.5,7.05978261 C272.595238,13.1624396 262.079365,20.544686 252.952381,29.2065217 C243.825397,37.8683575 236.384921,47.7113527 230.630952,58.7355072 C224.876984,69.7596618 222,82.3586957 222,96.5326087 C222,112.281401 226.06746,125.963164 234.202381,137.577899 C242.337302,149.192633 255.134921,155 272.595238,155 Z" id="“-copy-2"></path>
                    </g>
                </g>
            </g>
        </g>
    </g>
</svg>