<?xml version="1.0" encoding="UTF-8"?>
<svg width="231px" height="155px" viewBox="0 0 231 155" version="1.1" xmlns="http://www.w3.org/2000/svg" xmlns:xlink="http://www.w3.org/1999/xlink">
    <!-- Generator: sketchtool 61.2 (101010) - https://sketch.com -->
    <title>2ED7B1FB-0482-4119-9FDE-8C7DC5697A72</title>
    <desc>Created with sketchtool.</desc>
    <g id="Home" stroke="none" stroke-width="1" fill="none" fill-rule="evenodd" opacity="0.100000001">
        <g id="WSIRN-Home-without-Login" transform="translate(-1119.000000, -3672.000000)" fill="#B07485" fill-rule="nonzero">
            <g id="Quotes-of-the-day" transform="translate(0.000000, 3672.000000)">
                <g id="alex-loup-2zDw14yCYqk-unsplash">
                    <g id="Bitmap">
                        <path d="M1169.59524,155 C1182.69048,155 1194.19841,151.062802 1204.11905,143.188406 C1214.03968,135.31401 1219,124.486715 1219,110.706522 C1219,94.1702899 1213.54365,82.2602657 1202.63095,74.9764493 C1191.71825,67.6926329 1178.52381,64.0507246 1163.04762,64.0507246 C1165.8254,50.2705314 1172.47222,39.1479469 1182.9881,30.682971 C1193.50397,22.2179952 1204.9127,15.6231884 1217.21429,10.8985507 L1217.21429,10.8985507 L1217.21429,-8 C1205.30952,-4.06280193 1193.40476,0.957125604 1181.5,7.05978261 C1169.59524,13.1624396 1159.07937,20.544686 1149.95238,29.2065217 C1140.8254,37.8683575 1133.38492,47.7113527 1127.63095,58.7355072 C1121.87698,69.7596618 1119,82.3586957 1119,96.5326087 C1119,112.281401 1123.06746,125.963164 1131.20238,137.577899 C1139.3373,149.192633 1152.13492,155 1169.59524,155 Z M1300.59524,155 C1313.69048,155 1325.19841,151.062802 1335.11905,143.188406 C1345.03968,135.31401 1350,124.486715 1350,110.706522 C1350,94.1702899 1344.54365,82.2602657 1333.63095,74.9764493 C1322.71825,67.6926329 1309.52381,64.0507246 1294.04762,64.0507246 C1296.8254,50.2705314 1303.47222,39.1479469 1313.9881,30.682971 C1324.50397,22.2179952 1335.9127,15.6231884 1348.21429,10.8985507 L1348.21429,10.8985507 L1348.21429,-8 C1336.30952,-4.06280193 1324.40476,0.957125604 1312.5,7.05978261 C1300.59524,13.1624396 1290.07937,20.544686 1280.95238,29.2065217 C1271.8254,37.8683575 1264.38492,47.7113527 1258.63095,58.7355072 C1252.87698,69.7596618 1250,82.3586957 1250,96.5326087 C1250,112.281401 1254.06746,125.963164 1262.20238,137.577899 C1270.3373,149.192633 1283.13492,155 1300.59524,155 Z" id="“-copy" transform="translate(1234.500000, 73.500000) scale(-1, 1) translate(-1234.500000, -73.500000) "></path>
                    </g>
                </g>
            </g>
        </g>
    </g>
</svg>